<svg width="31" height="29" viewBox="0 0 31 29" fill="none" xmlns="http://www.w3.org/2000/svg">
<path d="M26.1954 10.7083L19.6911 4.51034L21.872 2.43221C22.4586 1.87318 23.1792 1.59367 24.0337 1.59367C24.8882 1.59367 25.6087 1.87318 26.1954 2.43221L28.3762 4.51034C28.9629 5.06936 29.2562 5.756 29.2562 6.57023C29.2562 7.38447 28.9629 8.0711 28.3762 8.63013L26.1954 10.7083ZM1.93836 27.6249V21.427L8.82521 14.8645L0.752289 7.09888L7.98349 0.208252L16.0947 7.97388L19.6911 4.51034L26.1954 10.7083L22.5989 14.1353L30.6718 21.901L23.4789 28.7551L15.3295 21.026L8.44261 27.6249H1.93836ZM11.006 12.7864L13.9138 10.0155L12.0773 8.26554L10.2408 9.97909L8.09827 7.93742L9.8965 6.18742L7.94522 4.3645L5.0757 7.13534L11.006 12.7864ZM23.4406 24.6353L26.3484 21.8645L24.3972 20.0416L22.5989 21.7551L20.4181 19.7135L22.2546 17.9635L20.3798 16.2135L17.472 18.9843L23.4406 24.6353ZM4.99918 24.7083H7.14176L21.872 10.7083L19.6911 8.63013L4.99918 22.6666V24.7083Z" fill="#1C1B1F"/>
</svg>
