<svg width="29" height="27" viewBox="0 0 29 27" fill="none" xmlns="http://www.w3.org/2000/svg">
<path d="M2.41873 26.625C1.98511 26.625 1.62164 26.4852 1.32831 26.2057C1.03498 25.9262 0.888313 25.5799 0.888313 25.1667C0.888313 24.7535 1.03498 24.4071 1.32831 24.1276C1.62164 23.8481 1.98511 23.7083 2.41873 23.7083H23.8445C24.2781 23.7083 24.6416 23.8481 24.9349 24.1276C25.2282 24.4071 25.3749 24.7535 25.3749 25.1667C25.3749 25.5799 25.2282 25.9262 24.9349 26.2057C24.6416 26.4852 24.2781 26.625 23.8445 26.625H2.41873ZM7.00996 20.7917C5.32651 20.7917 3.88537 20.2205 2.68655 19.0781C1.48772 17.9358 0.888313 16.5625 0.888313 14.9583V3.29167C0.888313 2.48958 1.18802 1.80295 1.78743 1.23177C2.38684 0.66059 3.10741 0.375 3.94914 0.375H25.3749C26.2166 0.375 26.9372 0.66059 27.5366 1.23177C28.136 1.80295 28.4357 2.48958 28.4357 3.29167V7.66667C28.4357 8.46875 28.136 9.15538 27.5366 9.72656C26.9372 10.2977 26.2166 10.5833 25.3749 10.5833H22.3141V14.9583C22.3141 16.5625 21.7147 17.9358 20.5158 19.0781C19.317 20.2205 17.8759 20.7917 16.1924 20.7917H7.00996ZM7.00996 17.875H16.1924C17.0342 17.875 17.7547 17.5894 18.3541 17.0182C18.9536 16.4471 19.2533 15.7604 19.2533 14.9583V3.29167H3.94914V14.9583C3.94914 15.7604 4.24884 16.4471 4.84825 17.0182C5.44767 17.5894 6.16823 17.875 7.00996 17.875ZM22.3141 7.66667H25.3749V3.29167H22.3141V7.66667Z" fill="#1C1B1F"/>
</svg>
